Coordinates
version=1
nRows=24
nColumns=24
inDegrees=yes

Units are S.I. units (second, meters, Newtons, ...)
Angles are in degrees.

endheader
time	pelvis_tilt	pelvis_list	pelvis_rotation	pelvis_tx	pelvis_ty	pelvis_tz	hip_flexion_r	hip_adduction_r	hip_rotation_r	knee_angle_r	ankle_angle_r	subtalar_angle_r	mtp_angle_r	hip_flexion_l	hip_adduction_l	hip_rotation_l	knee_angle_l	ankle_angle_l	subtalar_angle_l	mtp_angle_l	lumbar_extension	lumbar_bending	lumbar_rotation
      3.46500000	     -2.57393854	     -5.54964986	     -5.53921141	     -1.14851226	      0.93863088	      0.23897100	     12.60982732	     12.37803886	      7.56780076	    -22.06545824	     15.15110448	    -13.18732950	      0.00000000	     26.84699340	     -6.50724755	     -4.68262082	    -69.30113629	     15.03971014	     -7.42447614	      0.00000000	    -11.99789369	      4.67979185	     -2.58126612
      3.47000000	     -2.51803686	     -5.32107514	     -5.70118404	     -1.14141231	      0.93963044	      0.23948799	     11.81570240	     12.15000222	      7.94272285	    -21.60286938	     15.24947150	    -13.36077300	      0.00000000	     27.36270083	     -6.30583318	     -4.80480984	    -68.30793556	     15.55393983	     -6.47892083	      0.00000000	    -12.01386977	      4.32592280	     -2.36806635
      3.47500000	     -2.45202806	     -5.10066720	     -5.87552458	     -1.13431494	      0.94054154	      0.24000137	     11.01631992	     11.92699106	      8.33628553	    -21.14793327	     15.36292454	    -13.55766228	      0.00000000	     27.83127675	     -6.11236091	     -4.93761376	    -67.22686010	     16.00772779	     -5.63859992	      0.00000000	    -12.04041036	      3.98640339	     -2.10971284
      3.48000000	     -2.38004228	     -4.89708851	     -6.04634753	     -1.12723828	      0.94134471	      0.24051274	     10.21901060	     11.71612801	      8.72977655	    -20.70239562	     15.48881400	    -13.77436920	      0.00000000	     28.26654743	     -5.92813779	     -5.05784346	    -66.06782193	     16.38979514	     -4.93498678	      0.00000000	    -12.08109242	      3.65415174	     -1.81138700
      3.48500000	     -2.32718442	     -4.70204484	     -6.22261663	     -1.12014541	      0.94203143	      0.24100506	      9.45822489	     11.50527327	      9.08475204	    -20.28089880	     15.61137537	    -13.95399039	      0.00000000	     28.68157320	     -5.74865517	     -5.17320277	    -64.81682514	     16.73329018	     -4.33685627	      0.00000000	    -12.09412737	      3.34118976	     -1.54289333
      3.49000000	     -2.28729809	     -4.52074391	     -6.40794383	     -1.11303637	      0.94258498	      0.24148697	      8.72882111	     11.30404366	      9.42189877	    -19.89290710	     15.75607581	    -14.10951106	      0.00000000	     29.06898384	     -5.57990039	     -5.28213716	    -63.47885037	     17.05272881	     -3.85356412	      0.00000000	    -12.08722194	      3.05014576	     -1.28274651
      3.49500000	     -2.24552244	     -4.35518923	     -6.59038630	     -1.10593526	      0.94303421	      0.24195518	      8.00418377	     11.11399187	      9.75829413	    -19.51343854	     15.90143158	    -14.27249119	      0.00000000	     29.42468404	     -5.42100829	     -5.37193644	    -62.06726076	     17.30515895	     -3.47097010	      0.00000000	    -12.08760797	      2.77476714	     -0.99892515
      3.50000000	     -2.21216364	     -4.20671231	     -6.77483747	     -1.09882983	      0.94335372	      0.24238813	      7.30321581	     10.93707325	     10.08569342	    -19.16167995	     16.06025756	    -14.43335726	      0.00000000	     29.75251753	     -5.27137298	     -5.43944278	    -60.57771346	     17.52992878	     -3.18260426	      0.00000000	    -12.08032020	      2.52770411	     -0.71860856
      3.50500000	     -2.19964469	     -4.07091202	     -6.95130963	     -1.09168849	      0.94352197	      0.24282805	      6.63564243	     10.77180992	     10.37877063	    -18.83155866	     16.24695983	    -14.58367404	      0.00000000	     30.06804796	     -5.13720504	     -5.49267916	    -59.01657169	     17.72730515	     -2.96473185	      0.00000000	    -12.03738725	      2.29863497	     -0.47500238
      3.51000000	     -2.22840796	     -3.95383302	     -7.09896979	     -1.08461266	      0.94351834	      0.24314711	      6.05211047	     10.62099393	     10.61724976	    -18.56536894	     16.43385172	    -14.69932387	      0.00000000	     30.40053198	     -4.97749686	     -5.42421426	    -57.38343084	     17.91712721	     -2.77642604	      0.00000000	    -11.96701764	      2.11232483	     -0.24359582
      3.51500000	     -2.15036051	     -3.84813518	     -7.32723626	     -1.07748049	      0.94359045	      0.24358164	      5.31653962	     10.47900333	     11.03344927	    -18.25633604	     16.62145849	    -14.89340640	      0.00000000	     30.55640760	     -4.87926565	     -5.48426449	    -55.65938493	     18.01991876	     -2.75287873	      0.00000000	    -12.01680354	      1.91110411	      0.11796680
      3.52000000	     -2.15249791	     -3.75684373	     -7.48493672	     -1.07033097	      0.94341872	      0.24395753	      4.70173199	     10.35498980	     11.31857612	    -18.00359240	     16.82901512	    -15.05641043	      0.00000000	     30.77677623	     -4.76266725	     -5.41498626	    -53.87666635	     18.14528222	     -2.69030772	      0.00000000	    -11.96071750	      1.73723900	      0.34522900
      3.52500000	     -2.18672851	     -3.68178612	     -7.63194757	     -1.06327020	      0.94309304	      0.24423579	      4.15801964	     10.24623182	     11.57428720	    -17.81193631	     17.05726556	    -15.18247814	      0.00000000	     31.00359037	     -4.63369563	     -5.23486809	    -52.03161758	     18.25092108	     -2.63148257	      0.00000000	    -11.89821956	      1.60471969	      0.59772041
      3.53000000	     -2.14246236	     -3.60735028	     -7.82511839	     -1.05610539	      0.94282200	      0.24458278	      3.49623436	     10.12659783	     11.92203142	    -17.57614255	     17.28778850	    -15.34251160	      0.00000000	     31.08407151	     -4.54677499	     -5.17023805	    -50.09327069	     18.29969614	     -2.69151517	      0.00000000	    -11.90614839	      1.45472657	      0.88674481
      3.53500000	     -2.14144930	     -3.55318989	     -7.97630677	     -1.04898883	      0.94237968	      0.24487257	      2.91121801	     10.03201034	     12.20177281	    -17.39157403	     17.52978458	    -15.48812028	      0.00000000	     31.18417265	     -4.44998680	     -4.96325859	    -48.10083267	     18.35908563	     -2.69265406	      0.00000000	    -11.87807426	      1.33786471	      1.13042138
      3.54000000	     -2.15474400	     -3.50179884	     -8.12532743	     -1.04188612	      0.94183283	      0.24514010	      2.35715358	      9.93941245	     12.45876601	    -17.23404779	     17.79313089	    -15.61439761	      0.00000000	     31.26098930	     -4.35488214	     -4.70589038	    -46.04222745	     18.39247504	     -2.70308744	      0.00000000	    -11.83956059	      1.22677020	      1.36332839
      3.54500000	     -2.15878167	     -3.45570496	     -8.26078130	     -1.03477990	      0.94122234	      0.24537505	      1.80351246	      9.84859443	     12.70481529	    -17.09941704	     18.06886396	    -15.72656367	      0.00000000	     31.28783366	     -4.26305156	     -4.40955113	    -43.91708416	     18.40221932	     -2.71898082	      0.00000000	    -11.81396523	      1.12809819	      1.59446093
      3.55000000	     -2.18257962	     -3.41236599	     -8.39370051	     -1.02768100	      0.94050688	      0.24559994	      1.28249917	      9.76106823	     12.91502504	    -16.98217977	     18.36035103	    -15.82592023	      0.00000000	     31.29587019	     -4.17641153	     -4.05042193	    -41.73320245	     18.39243811	     -2.73038746	      0.00000000	    -11.77140091	      1.03213836	      1.79640297
      3.55500000	     -2.21732526	     -3.36887346	     -8.52501908	     -1.02062485	      0.93969819	      0.24583265	      0.79624129	      9.67798916	     13.10376650	    -16.90483204	     18.66949800	    -15.91871921	      0.00000000	     31.27825934	     -4.09384597	     -3.62114362	    -39.49579687	     18.35131286	     -2.73943210	      0.00000000	    -11.72804195	      0.93198222	      1.98267522
      3.56000000	     -2.21809411	     -3.33111816	     -8.63765085	     -1.01348953	      0.93888191	      0.24598432	      0.25942388	      9.58397926	     13.26914995	    -16.80592421	     18.98358525	    -15.98392788	      0.00000000	     31.17973519	     -4.01472543	     -3.17922684	    -37.20009440	     18.28093148	     -2.79496945	      0.00000000	    -11.71601109	      0.85335420	      2.16993757
      3.56500000	     -2.23486067	     -3.29655441	     -8.74243199	     -1.00638419	      0.93796525	      0.24613893	     -0.23903426	      9.49897803	     13.40602815	    -16.74497724	     19.30819970	    -16.04505385	      0.00000000	     31.06749259	     -3.94663962	     -2.66589892	    -34.87165374	     18.18150624	     -2.85099511	      0.00000000	    -11.69761450	      0.77683580	      2.33270382
      3.57000000	     -2.28620342	     -3.26293285	     -8.85640779	     -0.99933888	      0.93692525	      0.24633354	     -0.67509539	      9.42780084	     13.54443335	    -16.73143314	     19.64257394	    -16.11189576	      0.00000000	     30.96655527	     -3.90034827	     -2.08509779	    -32.52547008	     18.02959628	     -2.93405003	      0.00000000	    -11.65394939	      0.69412127	      2.48003012
      3.57500000	     -2.31099952	     -3.23269193	     -8.96469046	     -0.99223605	      0.93586995	      0.24650064	     -1.14841283	      9.34831315	     13.65628600	    -16.70384310	     19.98031017	    -16.15806436	      0.00000000	     30.80476897	     -3.86572022	     -1.48179892	    -30.15922652	     17.82980316	     -3.09835059	      0.00000000	    -11.63745255	      0.61863376	      2.62011889
      3.58000000	     -2.23539738	     -3.20710236	     -9.01875155	     -0.98502224	      0.93490007	      0.24660144	     -1.74511512	      9.24544797	     13.65361670	    -16.64142160	     20.33238001	    -16.14738054	      0.00000000	     30.51255595	     -3.81943175	     -0.85189968	    -27.79019186	     17.59813498	     -3.29569811	      0.00000000	    -11.73143632	      0.53688317	      2.70438807
